<?xml version="1.0" encoding="UTF-8"?>
<svg version="1.1" xmlns="http://www.w3.org/2000/svg" width="346" height="142">
<path d="M0 0 C114.18 0 228.36 0 346 0 C346 46.86 346 93.72 346 142 C231.82 142 117.64 142 0 142 C0 95.14 0 48.28 0 0 Z " fill="#530AA4" transform="translate(0,0)"/>
<path d="M0 0 C7.67280207 5.87385025 11.97737007 13.93211022 15 23 C15.96317234 34.85807263 14.44079279 45.7895113 6.70703125 55.1875 C2.40640946 59.75383527 -2.31388853 64.23817443 -8 67 C-8.99 67 -9.98 67 -11 67 C-9.7193878 62.26311186 -8.01918143 59.51822128 -4.625 56 C2.42174351 48.4111993 6.88860587 41.12398016 7.4375 30.5625 C7.03553926 21.08292597 2.85283762 13.37193674 -4 7 C-5.32 6.01 -6.64 5.02 -8 4 C-8 18.19 -8 32.38 -8 47 C-15 47 -15 47 -18 45 C-18.36076355 43.05111694 -18.36076355 43.05111694 -18.34057617 40.64208984 C-18.34023628 39.29091568 -18.34023628 39.29091568 -18.33988953 37.91244507 C-18.32440567 36.93844757 -18.30892181 35.96445007 -18.29296875 34.9609375 C-18.28872391 33.96494537 -18.28447906 32.96895325 -18.28010559 31.94277954 C-18.2632768 28.75324775 -18.22561676 25.56434167 -18.1875 22.375 C-18.1724586 20.21615494 -18.15876925 18.0573 -18.14648438 15.8984375 C-18.11335949 10.59871626 -18.06154828 5.29946431 -18 0 C-21.63 0 -25.26 0 -29 0 C-28.97905273 1.25659424 -28.95810547 2.51318848 -28.93652344 3.80786133 C-28.86418501 8.46497221 -28.81822266 13.12203334 -28.78027344 17.77954102 C-28.76014391 19.79622749 -28.73283763 21.81285551 -28.69824219 23.8293457 C-28.64978278 26.72622082 -28.62704501 29.62232515 -28.609375 32.51953125 C-28.58872986 33.42274612 -28.56808472 34.325961 -28.54681396 35.25654602 C-28.54457665 41.48177014 -28.54457665 41.48177014 -30.82519531 44.0769043 C-33.67851601 45.28799607 -35.93405876 45.27252811 -39 45 C-40 44 -40 44 -40.11352539 40.30639648 C-40.11336624 38.66128708 -40.10766988 37.01617269 -40.09765625 35.37109375 C-40.0962413 34.50686295 -40.09482635 33.64263214 -40.09336853 32.75221252 C-40.08775239 29.98060708 -40.07519719 27.2090812 -40.0625 24.4375 C-40.05748708 22.5631522 -40.05292381 20.68880315 -40.04882812 18.81445312 C-40.03777772 14.20960456 -40.0205023 9.60481579 -40 5 C-41.28689776 6.09931158 -42.57002651 7.20303628 -43.8515625 8.30859375 C-44.92398193 9.22983032 -44.92398193 9.22983032 -46.01806641 10.16967773 C-51.11542914 14.87710918 -53.54873341 20.41590185 -54.40625 27.2265625 C-54.67877236 37.10549804 -52.69249979 44.74952265 -45.99609375 52.2421875 C-44.65098145 53.55411866 -43.28687517 54.84692643 -41.90234375 56.1171875 C-38.99142227 58.99822273 -36.79552394 62.32262886 -35 66 C-35 66.66 -35 67.32 -35 68 C-44.30481292 65.34148202 -51.91403789 59.25879935 -56.80859375 50.91796875 C-61.91706008 40.78678972 -64.28226774 30.25593154 -60.8125 19.0625 C-56.64682236 8.76401917 -49.38012351 -0.20856991 -39.15234375 -4.8359375 C-26.23088493 -9.94823881 -11.50534548 -7.26751225 0 0 Z " fill="#F7F4FA" transform="translate(86,55)"/>
<path d="M0 0 C1.70116376 0.94011682 3.36504293 1.94895617 5 3 C7.96514323 4.11381015 10.97268387 5.07004014 14 6 C14 6.66 14 7.32 14 8 C15.5778125 7.9690625 15.5778125 7.9690625 17.1875 7.9375 C21 8 21 8 26 9 C26.33 18.9 26.66 28.8 27 39 C25.35 39 23.7 39 22 39 C21.97303635 37.20841511 21.95362083 35.41671527 21.9375 33.625 C21.92589844 32.62726562 21.91429688 31.62953125 21.90234375 30.6015625 C22 28 22 28 23 26 C21.35 26 19.7 26 18 26 C17.814375 25.113125 17.62875 24.22625 17.4375 23.3125 C15.16999347 18.08737625 11.29428947 16.12046695 6.3125 13.6875 C-2.69308499 11.81841632 -11.89035757 12.24914357 -19.8515625 17.13671875 C-23.39415853 19.79786316 -24.37160408 21.7297641 -25 26 C-41.8929385 23.10933941 -41.8929385 23.10933941 -49 20 C-42.30037449 14.73491845 -34.58198423 11.75627759 -26.6015625 8.96875 C-23.55653013 7.83486407 -20.72763873 6.44844699 -17.8515625 4.9453125 C-14.96588134 3.47203225 -11.98649325 2.25432716 -9 1 C-5.93570224 -0.53214888 -3.3834358 -0.22938548 0 0 Z " fill="#F8F6FB" transform="translate(66,9)"/>
<path d="M0 0 C2.90970106 3.08784602 2.82397804 4.73001544 2.73632812 8.83203125 C2.67348633 9.99798828 2.67348633 9.99798828 2.609375 11.1875 C2.58681641 11.98027344 2.56425781 12.77304687 2.54101562 13.58984375 C2.48227971 15.5398762 2.39260154 17.48893312 2.296875 19.4375 C1.60464844 19.2209375 0.91242188 19.004375 0.19921875 18.78125 C-10.84378865 15.63857596 -22.09544901 14.44565248 -32.703125 19.4375 C-33.363125 19.4375 -34.023125 19.4375 -34.703125 19.4375 C-34.83830403 16.68585568 -34.93727751 13.94085479 -35.015625 11.1875 C-35.05751953 10.41019531 -35.09941406 9.63289063 -35.14257812 8.83203125 C-35.26660753 3.02745487 -35.26660753 3.02745487 -32.375 0 C-21.45429452 -6.38637747 -11.04806116 -6.38616252 0 0 Z " fill="#FAF8FC" transform="translate(78.703125,28.5625)"/>
<path d="M0 0 C19.83333333 0 19.83333333 0 25.375 5.25 C27.47596251 8.80547501 27.50916975 10.92664198 27 15 C25.32375739 18.68773373 23.42746406 20.85783496 20 23 C17.11788698 23.96070434 15.30149956 24.10581883 12.3125 24.0625 C10.889375 24.041875 9.46625 24.02125 8 24 C8 28.29 8 32.58 8 37 C5.36 37 2.72 37 0 37 C0 24.79 0 12.58 0 0 Z " fill="#EFE8F6" transform="translate(308,65)"/>
<path d="M0 0 C2.64 0 5.28 0 8 0 C8.33 4.62 8.66 9.24 9 14 C9.70125 13.0615625 10.4025 12.123125 11.125 11.15625 C12.08204437 9.93648756 13.04045033 8.71779258 14 7.5 C14.68642578 6.56994141 14.68642578 6.56994141 15.38671875 5.62109375 C18.93273692 1.20071494 18.93273692 1.20071494 22.16015625 0.59375 C24.375 0.59375 24.375 0.59375 28 1 C24 6.33333333 20 11.66666667 16 17 C17.28423573 19.74294779 18.69030033 22.03664416 20.6015625 24.3828125 C21.09140625 24.99253906 21.58125 25.60226563 22.0859375 26.23046875 C23.11890885 27.50201977 24.15277527 28.77284414 25.1875 30.04296875 C29 34.79346478 29 34.79346478 29 37 C25.84348331 37.50729733 24.04149775 37.76554705 21 37 C17.86064898 34.35752468 15.46859388 31.26207048 13 28 C11.68 26.35 10.36 24.7 9 23 C8.67 27.62 8.34 32.24 8 37 C5.36 37 2.72 37 0 37 C0 24.79 0 12.58 0 0 Z " fill="#F3EEF8" transform="translate(160,65)"/>
<path d="M0 0 C2.64 0 5.28 0 8 0 C8.01981934 0.83772949 8.03963867 1.67545898 8.06005859 2.53857422 C8.13810612 5.64365834 8.22479635 8.74834539 8.31738281 11.85302734 C8.37454036 13.85886971 8.42168596 15.86498918 8.46875 17.87109375 C8.50742187 19.12792969 8.54609375 20.38476562 8.5859375 21.6796875 C8.6173584 22.84226074 8.6487793 24.00483398 8.68115234 25.20263672 C8.72157869 28.13656482 8.72157869 28.13656482 11 30 C12.91180549 30.28005058 12.91180549 30.28005058 15 30.1875 C16.051875 30.17783203 16.051875 30.17783203 17.125 30.16796875 C19.09056373 30.10706133 19.09056373 30.10706133 21 29 C22.03714522 25.88856433 22.20031861 23.50531904 22.31640625 20.23828125 C22.35830078 19.12001953 22.40019531 18.00175781 22.44335938 16.84960938 C22.48267578 15.68236328 22.52199219 14.51511719 22.5625 13.3125 C22.60568359 12.13365234 22.64886719 10.95480469 22.69335938 9.74023438 C22.79951176 6.82694117 22.90156242 3.91356243 23 1 C25.31 1 27.62 1 30 1 C30.11647041 5.54144994 30.18734502 10.08251394 30.25 14.625 C30.28351563 15.91019531 30.31703125 17.19539063 30.3515625 18.51953125 C30.46211341 29.18769417 30.46211341 29.18769417 28.234375 32.7734375 C24.04255616 36.95059964 21.02768799 37.3296014 15.125 37.4375 C7.4267703 37.32546755 7.4267703 37.32546755 4.25 34.8125 C0.52711298 30.15889122 -0.25132982 26.51529555 -0.1953125 20.60546875 C-0.18886719 19.40341797 -0.18242187 18.20136719 -0.17578125 16.96289062 C-0.15902344 15.71701172 -0.14226562 14.47113281 -0.125 13.1875 C-0.11597656 11.92228516 -0.10695313 10.65707031 -0.09765625 9.35351562 C-0.07412394 6.23548436 -0.04124545 3.11783903 0 0 Z " fill="#F5F0F9" transform="translate(269,65)"/>
<path d="M0 0 C2.46325185 1.07913891 3.9424654 2.22051061 6 4 C5.34 5.65 4.68 7.3 4 9 C-0.75 8.125 -0.75 8.125 -3 7 C-7.14503661 6.75212983 -7.14503661 6.75212983 -11 8 C-10.67 9.65 -10.34 11.3 -10 13 C-9.11957031 13.23074219 -8.23914063 13.46148437 -7.33203125 13.69921875 C5.03775942 17.17264499 5.03775942 17.17264499 8 22 C8.62765226 25.95420925 8.9698237 28.34559486 6.9375 31.8125 C5.17382593 33.99609646 3.52660168 35.73669916 1 37 C-12.34005862 38.04326099 -12.34005862 38.04326099 -16.875 35.25 C-19 33 -19 33 -19 29 C-18.34 28.01 -17.68 27.02 -17 26 C-14.50638429 27.20381448 -12.31856917 28.45428722 -10 30 C-7.27716095 30.31254378 -4.75557514 30.13333428 -2 30 C-0.70366379 28.93354885 -0.70366379 28.93354885 -0.9375 26.4375 C-0.958125 25.633125 -0.97875 24.82875 -1 24 C-1.88042969 23.78085938 -2.76085937 23.56171875 -3.66796875 23.3359375 C-14.34890882 20.41972079 -14.34890882 20.41972079 -17.3125 17.1875 C-19.34088246 13.3561109 -19.69957048 11.27515295 -19 7 C-14.36720416 -0.44556474 -8.23002738 -1.02133096 0 0 Z " fill="#F7F3FA" transform="translate(146,65)"/>
<path d="M0 0 C1.70250393 1.28725907 3.37064759 2.62131719 5 4 C8.18762109 4.79690838 8.18762109 4.79690838 11 5 C6.27149321 17.19457014 6.27149321 17.19457014 2 22 C-1.85047943 23.02989974 -5.11438382 22.75885452 -9 22 C-10.34130761 19.73354942 -11.67316234 17.46239903 -13 15.1875 C-13.57234375 14.22360352 -13.57234375 14.22360352 -14.15625 13.24023438 C-17 8.33984375 -17 8.33984375 -17 5 C-15.35 5 -13.7 5 -12 5 C-12 4.34 -12 3.68 -12 3 C-8.0508838 -0.11142488 -4.9500255 -0.61875319 0 0 Z " fill="#F9F6FB" transform="translate(66,103)"/>
<path d="M0 0 C2.31 0 4.62 0 7 0 C7 10.23 7 20.46 7 31 C12.61 31 18.22 31 24 31 C24 32.98 24 34.96 24 37 C16.08 37 8.16 37 0 37 C0 24.79 0 12.58 0 0 Z " fill="#F9F6FB" transform="translate(240,65)"/>
<path d="M0 0 C2.31 0 4.62 0 7 0 C7 9.9 7 19.8 7 30 C12.28 30 17.56 30 23 30 C23 31.98 23 33.96 23 36 C15.41 36 7.82 36 0 36 C0 24.12 0 12.24 0 0 Z " fill="#FEFDFE" transform="translate(211,66)"/>
<path d="M0 0 C1.67578125 1.234375 1.67578125 1.234375 4.11328125 3.796875 C4.48828125 6.609375 4.48828125 6.609375 4.11328125 8.796875 C4.77328125 9.126875 5.43328125 9.456875 6.11328125 9.796875 C5.12328125 9.796875 4.13328125 9.796875 3.11328125 9.796875 C2.78328125 14.086875 2.45328125 18.376875 2.11328125 22.796875 C1.12328125 22.796875 0.13328125 22.796875 -0.88671875 22.796875 C-0.88671875 23.456875 -0.88671875 24.116875 -0.88671875 24.796875 C-1.95986328 24.5803125 -1.95986328 24.5803125 -3.0546875 24.359375 C-12.99563802 22.50750323 -23.21692764 21.19881319 -32.88671875 24.796875 C-32.55671875 23.806875 -32.22671875 22.816875 -31.88671875 21.796875 C-32.54671875 21.466875 -33.20671875 21.136875 -33.88671875 20.796875 C-24.44529763 16.17250547 -13.74962219 16.53993022 -3.88671875 19.796875 C-2.21039458 20.43887149 -0.53921362 21.09581657 1.11328125 21.796875 C1.08021848 19.04364759 1.01302699 16.29847129 0.92578125 13.546875 C0.91998047 12.76957031 0.91417969 11.99226563 0.90820312 11.19140625 C0.7504203 7.08905279 0.68106683 5.39098177 -2.24609375 2.328125 C-8.9899724 -1.58252652 -16.21277695 -2.19645249 -23.88671875 -1.203125 C-27.44741788 0.13454305 -30.603689 1.89682932 -33.88671875 3.796875 C-34.87671875 4.126875 -35.86671875 4.456875 -36.88671875 4.796875 C-38.09553971 6.79703966 -38.09553971 6.79703966 -38.88671875 8.796875 C-39.32421875 6.671875 -39.32421875 6.671875 -38.88671875 3.796875 C-29.24982078 -8.32500924 -12.02571779 -7.66857367 0 0 Z " fill="#7940B8" transform="translate(79.88671875,26.203125)"/>
<path d="M0 0 C2.31 0 4.62 0 7 0 C7 12.21 7 24.42 7 37 C4.69 37 2.38 37 0 37 C0 24.79 0 12.58 0 0 Z " fill="#F7F4FB" transform="translate(194,65)"/>
<path d="M0 0 C-0.66 0.33 -1.32 0.66 -2 1 C-2 1.66 -2 2.32 -2 3 C-2.71542969 2.855625 -3.43085937 2.71125 -4.16796875 2.5625 C-14.10891927 0.71062823 -24.33020889 -0.59806181 -34 3 C-33.67 2.01 -33.34 1.02 -33 0 C-33.66 -0.33 -34.32 -0.66 -35 -1 C-23.70958306 -6.53000013 -11.25817985 -4.77619751 0 0 Z " fill="#804BBC" transform="translate(81,48)"/>
<path d="M0 0 C7.71484375 -0.09765625 7.71484375 -0.09765625 10 0 C11 1 11 1 11.1328125 2.8125 C11.13023437 3.534375 11.12765625 4.25625 11.125 5 C11.12757813 5.721875 11.13015625 6.44375 11.1328125 7.1875 C11 9 11 9 10 10 C6.66381769 10.14257189 3.34024394 10.04228157 0 10 C0 6.7 0 3.4 0 0 Z " fill="#540CA5" transform="translate(316,72)"/>
<path d="M0 0 C5.42096702 1.35524176 10.0778687 3.36634013 15 6 C15 6.66 15 7.32 15 8 C13.43883181 8.33951619 11.87598662 8.67132544 10.3125 9 C9.00732422 9.2784375 9.00732422 9.2784375 7.67578125 9.5625 C5 10 5 10 0 10 C0 6.7 0 3.4 0 0 Z " fill="#ECE5F5" transform="translate(94,22)"/>
<path d="M0 0 C0.33 0 0.66 0 1 0 C1.33 9.9 1.66 19.8 2 30 C0.35 30 -1.3 30 -3 30 C-3.02696365 28.20841511 -3.04637917 26.41671527 -3.0625 24.625 C-3.07410156 23.62726562 -3.08570312 22.62953125 -3.09765625 21.6015625 C-3 19 -3 19 -2 17 C-2.99 16.67 -3.98 16.34 -5 16 C-3.68 16 -2.36 16 -1 16 C-0.67 10.72 -0.34 5.44 0 0 Z " fill="#CCB7E4" transform="translate(91,18)"/>
<path d="M0 0 C5.62079741 0.40148553 8.20009476 2.01914689 12 6 C12.375 8.8125 12.375 8.8125 12 11 C12.66 11.33 13.32 11.66 14 12 C13.01 12 12.02 12 11 12 C10.67 16.29 10.34 20.58 10 25 C9.67 25 9.34 25 9 25 C8.98582031 23.74703125 8.97164062 22.4940625 8.95703125 21.203125 C8.91012562 19.55204672 8.86187825 17.90100618 8.8125 16.25 C8.80669922 15.425 8.80089844 14.6 8.79492188 13.75 C8.62925032 8.59140899 8.62925032 8.59140899 5.63671875 4.484375 C3.01915617 2.90092345 3.01915617 2.90092345 0 2 C0 1.34 0 0.68 0 0 Z " fill="#6828AF" transform="translate(72,24)"/>
<path d="M0 0 C0 0.33 0 0.66 0 1 C-0.98742187 1.06058594 -1.97484375 1.12117188 -2.9921875 1.18359375 C-4.27351563 1.26738281 -5.55484375 1.35117187 -6.875 1.4375 C-8.15117188 1.51871094 -9.42734375 1.59992187 -10.7421875 1.68359375 C-13.88300152 1.79206027 -13.88300152 1.79206027 -16 3 C-15.67 3.66 -15.34 4.32 -15 5 C-17.31 5.66 -19.62 6.32 -22 7 C-21.67 6.01 -21.34 5.02 -21 4 C-21.66 3.67 -22.32 3.34 -23 3 C-15.47658029 -0.68494027 -8.16659545 -0.28710687 0 0 Z " fill="#8D5CC3" transform="translate(69,44)"/>
<path d="M0 0 C1.89685547 0.05220703 1.89685547 0.05220703 3.83203125 0.10546875 C5.74048828 0.14607422 5.74048828 0.14607422 7.6875 0.1875 C9.15123047 0.23970703 9.15123047 0.23970703 10.64453125 0.29296875 C10.97453125 0.95296875 11.30453125 1.61296875 11.64453125 2.29296875 C5.70453125 2.62296875 -0.23546875 2.95296875 -6.35546875 3.29296875 C-3.35546875 0.29296875 -3.35546875 0.29296875 0 0 Z " fill="#530BA4" transform="translate(58.35546875,44.70703125)"/>
<path d="M0 0 C0.99 0.66 1.98 1.32 3 2 C3.1875 5.625 3.1875 5.625 3 9 C1.35 9 -0.3 9 -2 9 C-1.125 2.25 -1.125 2.25 0 0 Z " fill="#E8DFF3" transform="translate(90,39)"/>
<path d="M0 0 C2.31 0 4.62 0 7 0 C6.34 1.65 5.68 3.3 5 5 C4.01 5 3.02 5 2 5 C1.34 3.35 0.68 1.7 0 0 Z " fill="#E6DCF2" transform="translate(59,128)"/>
<path d="M0 0 C0.598125 0.226875 1.19625 0.45375 1.8125 0.6875 C1.214375 1.1 0.61625 1.5125 0 1.9375 C-2.17591237 3.6782299 -3.61298842 5.40445821 -5.1875 7.6875 C-5.41803497 4.84423536 -5.54653101 3.22604651 -3.9375 0.8125 C-2.1875 -0.3125 -2.1875 -0.3125 0 0 Z " fill="#6726AF" transform="translate(46.1875,27.3125)"/>
<path d="M0 0 C-0.33 0.99 -0.66 1.98 -1 3 C-2.875 3.8125 -2.875 3.8125 -5 4 C-5.99 3.34 -6.98 2.68 -8 2 C-4.77208445 -0.1519437 -3.71599191 -0.20086443 0 0 Z " fill="#7236B4" transform="translate(53,24)"/>
</svg>
