<?xml version="1.0" standalone="no"?>
<!DOCTYPE svg PUBLIC "-//W3C//DTD SVG 20010904//EN"
 "http://www.w3.org/TR/2001/REC-SVG-20010904/DTD/svg10.dtd">
<svg version="1.0" xmlns="http://www.w3.org/2000/svg"
 width="346.000000pt" height="142.000000pt" viewBox="0 0 346.000000 142.000000"
 preserveAspectRatio="xMidYMid meet">
<metadata>
Created by potrace 1.16, written by Peter Selinger 2001-2019
</metadata>
<g transform="translate(0.000000,142.000000) scale(0.100000,-0.100000)"
fill="#000000" stroke="none">
<path d="M625 1200 c24 -7 20 -8 -22 -4 -90 8 -194 -51 -192 -109 1 -27 2 -29
7 -9 4 13 27 36 52 52 25 16 50 33 55 38 6 5 16 7 23 4 6 -2 12 0 12 5 0 10
134 0 165 -12 11 -4 35 -19 53 -32 32 -24 32 -25 32 -110 0 -84 0 -85 -22 -79
-111 32 -146 38 -192 32 -75 -10 -156 -38 -154 -52 2 -7 -6 -20 -17 -29 -11
-8 3 -4 30 10 126 62 302 45 403 -39 17 -16 32 -23 32 -18 0 5 -18 22 -40 37
-26 18 -39 34 -35 42 3 8 5 41 5 74 0 56 1 59 25 59 21 0 25 -5 25 -32 0 -41
13 -28 15 15 2 30 -1 33 -22 29 -18 -3 -23 0 -23 15 0 53 -89 107 -190 117
-43 4 -49 3 -25 -4z"/>
</g>
</svg>
