<svg xmlns="http://www.w3.org/2000/svg" width="336" height="165" viewBox="0 0 336 165" version="1.1"><path d="M 38.843 26.859 C 26.382 32.161, 16.334 36.652, 16.515 36.839 C 16.977 37.315, 39.228 42.951, 40.750 42.978 C 41.438 42.990, 42 41.908, 42 40.573 C 42 35.024, 53.256 29.463, 64.040 29.684 C 73.415 29.877, 84 35.701, 84 40.667 C 84 42.842, 84.369 43.163, 86.418 42.771 C 88.787 42.318, 88.832 42.439, 88.668 48.804 C 88.505 55.095, 89.275 56.772, 91.617 55.234 C 92.402 54.718, 92.551 50.345, 92.117 40.542 L 91.500 26.585 85.500 25.341 C 82.200 24.657, 75.752 22.501, 71.171 20.549 C 66.590 18.597, 62.540 17.049, 62.171 17.109 C 61.802 17.168, 51.304 21.556, 38.843 26.859 M 94 35.631 C 94 40.885, 94.102 41.102, 96.250 40.416 C 97.487 40.020, 100.684 39.118, 103.353 38.412 C 106.023 37.705, 108.377 36.957, 108.584 36.749 C 108.792 36.542, 105.595 34.967, 101.481 33.250 L 94 30.127 94 35.631 M 53.544 33.528 C 46.114 36.364, 45 38.222, 45 47.781 C 45 55.420, 45.165 56.146, 46.750 55.495 C 56.041 51.677, 65.865 51.138, 74 54 C 77.025 55.064, 79.838 55.949, 80.250 55.967 C 80.662 55.985, 81 52.245, 81 47.655 C 81 38.510, 80.642 37.835, 74.008 34.470 C 69.307 32.085, 58.615 31.593, 53.544 33.528 M 55 56.351 C 40.618 59.663, 28.844 70.906, 25.574 84.450 C 23.140 94.531, 26.004 107.788, 32.436 116.212 C 35.866 120.704, 44.634 127.283, 48.815 128.502 L 51.131 129.176 48.922 124.847 C 47.707 122.465, 44.553 118.488, 41.914 116.009 C 29.088 103.959, 28.352 85.436, 40.185 72.488 C 42.943 69.470, 45.596 67, 46.079 67 C 46.562 67, 47.080 75.888, 47.229 86.750 L 47.500 106.500 49.899 106.839 C 51.219 107.026, 53.356 106.612, 54.649 105.920 L 57 104.662 57 83.876 L 57 63.091 60.413 62.450 C 62.290 62.098, 64.765 62.108, 65.913 62.472 C 67.944 63.117, 68 63.713, 68 84.707 C 68 108.684, 68.061 108.903, 74.750 108.968 L 78 109 78 88 C 78 74.308, 78.357 67, 79.026 67 C 81.003 67, 88.627 75.598, 91.021 80.526 C 92.911 84.417, 93.441 87.132, 93.454 93 C 93.475 102.307, 90.957 108.368, 84.106 115.500 C 79.047 120.767, 74.395 127.729, 75.318 128.652 C 76.512 129.845, 86.455 123.283, 91.019 118.289 C 97.777 110.895, 100.418 103.786, 100.416 93 C 100.414 83.900, 98.706 78.554, 93.297 70.720 C 85.642 59.635, 68.564 53.227, 55 56.351 M 112.800 73.046 C 110.180 75.666, 109.836 76.602, 110.343 79.727 C 111.135 84.604, 112.699 85.938, 120.654 88.515 C 128.568 91.079, 130.283 92.925, 127.553 95.941 C 124.205 99.641, 116 97.674, 116 93.171 C 116 92.493, 114.482 92, 112.392 92 C 108.959 92, 108.816 92.134, 109.453 94.750 C 110.430 98.763, 114.221 102.130, 118.636 102.907 C 127.932 104.543, 135.200 100.461, 135.200 93.604 C 135.200 87.759, 132.908 85.355, 125.122 83.036 C 117.082 80.642, 115.144 78.999, 117.537 76.606 C 119.994 74.149, 124.529 74.586, 126.821 77.500 C 128.633 79.803, 132.792 80.875, 134.252 79.415 C 134.573 79.093, 134.411 77.608, 133.890 76.114 C 132.505 72.143, 128.170 70, 121.519 70 C 116.530 70, 115.479 70.367, 112.800 73.046 M 141 86.500 L 141 103 144.500 103 L 148 103 148 97.674 C 148 93.289, 148.441 91.935, 150.496 90.004 C 151.869 88.714, 153.152 87.848, 153.347 88.079 C 153.542 88.311, 155.621 91.763, 157.965 95.750 C 162.096 102.775, 162.349 103, 166.114 103 C 168.251 103, 170 102.685, 170 102.300 C 170 101.914, 167.225 97.390, 163.832 92.246 L 157.665 82.892 164.053 76.446 L 170.442 70 165.820 70 C 161.353 70, 160.978 70.243, 154.629 77.250 L 148.059 84.500 148.030 77.250 L 148 70 144.500 70 L 141 70 141 86.500 M 174 86.500 L 174 103 177 103 L 180 103 180 86.500 L 180 70 177 70 L 174 70 174 86.500 M 187 86.500 L 187 103 198.500 103 L 210 103 210 100 L 210 97 202 97 L 194 97 194 83.500 L 194 70 190.500 70 L 187 70 187 86.500 M 215 86.500 L 215 103 226.500 103 L 238 103 238 100 L 238 97 230 97 L 222 97 222 83.500 L 222 70 218.500 70 L 215 70 215 86.500 M 243 81.851 C 243 95.663, 244.012 99.438, 248.310 101.660 C 252.338 103.743, 261.327 103.671, 264.596 101.529 C 268.312 99.094, 269 96.111, 269 82.435 L 269 70 266.103 70 L 263.206 70 262.853 82.581 C 262.543 93.642, 262.266 95.333, 260.559 96.581 C 258.028 98.431, 254.989 98.381, 252.223 96.443 C 250.128 94.976, 250 94.168, 250 82.443 L 250 70 246.500 70 L 243 70 243 81.851 M 276 86.406 L 276 103 279.500 103 L 283 103 283 97.142 L 283 91.285 288.987 90.659 C 292.280 90.315, 295.848 89.488, 296.916 88.821 C 301.515 85.948, 302.400 77.740, 298.588 73.306 C 296.288 70.630, 295.708 70.484, 286.088 70.156 L 276 69.813 276 86.406 M 283 80.500 C 283 84.992, 283.006 85, 286.566 85 C 291.310 85, 294 83.431, 294 80.665 C 294 77.314, 292.112 76, 287.300 76 L 283 76 283 80.500 M 56.102 112.586 C 54.233 113.914, 51.671 115, 50.408 115 C 48.191 115, 48.262 115.266, 52.468 122.721 C 57.198 131.104, 59.519 132.688, 65.443 131.577 C 68.347 131.032, 69.277 130.017, 72.639 123.726 C 74.763 119.751, 76.630 116.222, 76.789 115.883 C 76.948 115.543, 75.673 114.985, 73.955 114.641 C 72.237 114.297, 69.563 113.113, 68.011 112.008 C 64.339 109.393, 60.321 109.588, 56.102 112.586 M 60.797 137.984 L 62.500 140.967 64.228 138.734 C 66.690 135.550, 66.442 135, 62.547 135 L 59.093 135 60.797 137.984" stroke="none" fill="#573fac" fill-rule="evenodd"/><path d="M 0 82.503 L 0 165.006 168.250 164.753 L 336.500 164.500 336.756 82.250 L 337.012 0 168.506 0 L 0 0 0 82.503 M 0.477 83 C 0.477 128.375, 0.600 146.938, 0.750 124.250 C 0.900 101.563, 0.900 64.438, 0.750 41.750 C 0.600 19.063, 0.477 37.625, 0.477 83 M 38.843 26.859 C 26.382 32.161, 16.334 36.652, 16.515 36.839 C 16.977 37.315, 39.228 42.951, 40.750 42.978 C 41.438 42.990, 42 41.908, 42 40.573 C 42 35.024, 53.256 29.463, 64.040 29.684 C 73.415 29.877, 84 35.701, 84 40.667 C 84 42.842, 84.369 43.163, 86.418 42.771 C 88.787 42.318, 88.832 42.439, 88.668 48.804 C 88.505 55.095, 89.275 56.772, 91.617 55.234 C 92.402 54.718, 92.551 50.345, 92.117 40.542 L 91.500 26.585 85.500 25.341 C 82.200 24.657, 75.752 22.501, 71.171 20.549 C 66.590 18.597, 62.540 17.049, 62.171 17.109 C 61.802 17.168, 51.304 21.556, 38.843 26.859 M 94 35.631 C 94 40.885, 94.102 41.102, 96.250 40.416 C 97.487 40.020, 100.684 39.118, 103.353 38.412 C 106.023 37.705, 108.377 36.957, 108.584 36.749 C 108.792 36.542, 105.595 34.967, 101.481 33.250 L 94 30.127 94 35.631 M 53.544 33.528 C 46.114 36.364, 45 38.222, 45 47.781 C 45 55.420, 45.165 56.146, 46.750 55.495 C 56.041 51.677, 65.865 51.138, 74 54 C 77.025 55.064, 79.838 55.949, 80.250 55.967 C 80.662 55.985, 81 52.245, 81 47.655 C 81 38.510, 80.642 37.835, 74.008 34.470 C 69.307 32.085, 58.615 31.593, 53.544 33.528 M 55 56.351 C 40.618 59.663, 28.844 70.906, 25.574 84.450 C 23.140 94.531, 26.004 107.788, 32.436 116.212 C 35.866 120.704, 44.634 127.283, 48.815 128.502 L 51.131 129.176 48.922 124.847 C 47.707 122.465, 44.553 118.488, 41.914 116.009 C 29.088 103.959, 28.352 85.436, 40.185 72.488 C 42.943 69.470, 45.596 67, 46.079 67 C 46.562 67, 47.080 75.888, 47.229 86.750 L 47.500 106.500 49.899 106.839 C 51.219 107.026, 53.356 106.612, 54.649 105.920 L 57 104.662 57 83.876 L 57 63.091 60.413 62.450 C 62.290 62.098, 64.765 62.108, 65.913 62.472 C 67.944 63.117, 68 63.713, 68 84.707 C 68 108.684, 68.061 108.903, 74.750 108.968 L 78 109 78 88 C 78 74.308, 78.357 67, 79.026 67 C 81.003 67, 88.627 75.598, 91.021 80.526 C 92.911 84.417, 93.441 87.132, 93.454 93 C 93.475 102.307, 90.957 108.368, 84.106 115.500 C 79.047 120.767, 74.395 127.729, 75.318 128.652 C 76.512 129.845, 86.455 123.283, 91.019 118.289 C 97.777 110.895, 100.418 103.786, 100.416 93 C 100.414 83.900, 98.706 78.554, 93.297 70.720 C 85.642 59.635, 68.564 53.227, 55 56.351 M 112.800 73.046 C 110.180 75.666, 109.836 76.602, 110.343 79.727 C 111.135 84.604, 112.699 85.938, 120.654 88.515 C 128.568 91.079, 130.283 92.925, 127.553 95.941 C 124.205 99.641, 116 97.674, 116 93.171 C 116 92.493, 114.482 92, 112.392 92 C 108.959 92, 108.816 92.134, 109.453 94.750 C 110.430 98.763, 114.221 102.130, 118.636 102.907 C 127.932 104.543, 135.200 100.461, 135.200 93.604 C 135.200 87.759, 132.908 85.355, 125.122 83.036 C 117.082 80.642, 115.144 78.999, 117.537 76.606 C 119.994 74.149, 124.529 74.586, 126.821 77.500 C 128.633 79.803, 132.792 80.875, 134.252 79.415 C 134.573 79.093, 134.411 77.608, 133.890 76.114 C 132.505 72.143, 128.170 70, 121.519 70 C 116.530 70, 115.479 70.367, 112.800 73.046 M 141 86.500 L 141 103 144.500 103 L 148 103 148 97.674 C 148 93.289, 148.441 91.935, 150.496 90.004 C 151.869 88.714, 153.152 87.848, 153.347 88.079 C 153.542 88.311, 155.621 91.763, 157.965 95.750 C 162.096 102.775, 162.349 103, 166.114 103 C 168.251 103, 170 102.685, 170 102.300 C 170 101.914, 167.225 97.390, 163.832 92.246 L 157.665 82.892 164.053 76.446 L 170.442 70 165.820 70 C 161.353 70, 160.978 70.243, 154.629 77.250 L 148.059 84.500 148.030 77.250 L 148 70 144.500 70 L 141 70 141 86.500 M 174 86.500 L 174 103 177 103 L 180 103 180 86.500 L 180 70 177 70 L 174 70 174 86.500 M 187 86.500 L 187 103 198.500 103 L 210 103 210 100 L 210 97 202 97 L 194 97 194 83.500 L 194 70 190.500 70 L 187 70 187 86.500 M 215 86.500 L 215 103 226.500 103 L 238 103 238 100 L 238 97 230 97 L 222 97 222 83.500 L 222 70 218.500 70 L 215 70 215 86.500 M 243 81.851 C 243 95.663, 244.012 99.438, 248.310 101.660 C 252.338 103.743, 261.327 103.671, 264.596 101.529 C 268.312 99.094, 269 96.111, 269 82.435 L 269 70 266.103 70 L 263.206 70 262.853 82.581 C 262.543 93.642, 262.266 95.333, 260.559 96.581 C 258.028 98.431, 254.989 98.381, 252.223 96.443 C 250.128 94.976, 250 94.168, 250 82.443 L 250 70 246.500 70 L 243 70 243 81.851 M 276 86.406 L 276 103 279.500 103 L 283 103 283 97.142 L 283 91.285 288.987 90.659 C 292.280 90.315, 295.848 89.488, 296.916 88.821 C 301.515 85.948, 302.400 77.740, 298.588 73.306 C 296.288 70.630, 295.708 70.484, 286.088 70.156 L 276 69.813 276 86.406 M 283 80.500 C 283 84.992, 283.006 85, 286.566 85 C 291.310 85, 294 83.431, 294 80.665 C 294 77.314, 292.112 76, 287.300 76 L 283 76 283 80.500 M 56.102 112.586 C 54.233 113.914, 51.671 115, 50.408 115 C 48.191 115, 48.262 115.266, 52.468 122.721 C 57.198 131.104, 59.519 132.688, 65.443 131.577 C 68.347 131.032, 69.277 130.017, 72.639 123.726 C 74.763 119.751, 76.630 116.222, 76.789 115.883 C 76.948 115.543, 75.673 114.985, 73.955 114.641 C 72.237 114.297, 69.563 113.113, 68.011 112.008 C 64.339 109.393, 60.321 109.588, 56.102 112.586 M 60.797 137.984 L 62.500 140.967 64.228 138.734 C 66.690 135.550, 66.442 135, 62.547 135 L 59.093 135 60.797 137.984" stroke="none" fill="#fbfbfb" fill-rule="evenodd"/></svg>